<?xml version="1.0" encoding="UTF-8" standalone="no"?>
<!-- Created with Inkscape (http://www.inkscape.org/) -->

<svg
   xmlns:dc="http://purl.org/dc/elements/1.1/"
   xmlns:cc="http://creativecommons.org/ns#"
   xmlns:rdf="http://www.w3.org/1999/02/22-rdf-syntax-ns#"
   xmlns:svg="http://www.w3.org/2000/svg"
   xmlns="http://www.w3.org/2000/svg"
   xmlns:sodipodi="http://sodipodi.sourceforge.net/DTD/sodipodi-0.dtd"
   xmlns:inkscape="http://www.inkscape.org/namespaces/inkscape"
   id="svg2"
   version="1.1"
   inkscape:version="0.91 r13725"
   xml:space="preserve"
   width="1200"
   height="675"
   viewBox="0 0 1200 675"
   sodipodi:docname="wheel.svg"><metadata
     id="metadata8"><rdf:RDF><cc:Work
         rdf:about=""><dc:format>image/svg+xml</dc:format><dc:type
           rdf:resource="http://purl.org/dc/dcmitype/StillImage" /><dc:title></dc:title></cc:Work></rdf:RDF></metadata><defs
     id="defs6"><clipPath
       clipPathUnits="userSpaceOnUse"
       id="clipPath16"><path
         d="m 0,1.2207e-4 960,0 0,539.99999793 -960,0 L 0,1.2207e-4 Z"
         id="path18"
         inkscape:connector-curvature="0"
         style="clip-rule:evenodd" /></clipPath><clipPath
       clipPathUnits="userSpaceOnUse"
       id="clipPath26"><path
         d="M 1.4305e-5,0 960.00001,0 l 0,540 -959.999995695,0 0,-540 z"
         id="path28"
         inkscape:connector-curvature="0"
         style="clip-rule:evenodd" /></clipPath><clipPath
       clipPathUnits="userSpaceOnUse"
       id="clipPath42"><path
         d="M 1.4305e-5,0 960.00001,0 l 0,540 -959.999995695,0 0,-540 z"
         id="path44"
         inkscape:connector-curvature="0"
         style="clip-rule:evenodd" /></clipPath><clipPath
       clipPathUnits="userSpaceOnUse"
       id="clipPath58"><path
         d="M 1.4305e-5,0 960.00001,0 l 0,540 -959.999995695,0 0,-540 z"
         id="path60"
         inkscape:connector-curvature="0"
         style="clip-rule:evenodd" /></clipPath><clipPath
       clipPathUnits="userSpaceOnUse"
       id="clipPath74"><path
         d="M 1.4305e-5,0 960.00001,0 l 0,540 -959.999995695,0 0,-540 z"
         id="path76"
         inkscape:connector-curvature="0"
         style="clip-rule:evenodd" /></clipPath><clipPath
       clipPathUnits="userSpaceOnUse"
       id="clipPath86"><path
         d="M 1.4305e-5,0 960.00001,0 l 0,540 -959.999995695,0 0,-540 z"
         id="path88"
         inkscape:connector-curvature="0"
         style="clip-rule:evenodd" /></clipPath></defs><sodipodi:namedview
     pagecolor="#ffffff"
     bordercolor="#666666"
     borderopacity="1"
     objecttolerance="10"
     gridtolerance="10"
     guidetolerance="10"
     inkscape:pageopacity="0"
     inkscape:pageshadow="2"
     inkscape:window-width="1536"
     inkscape:window-height="811"
     id="namedview4"
     showgrid="false"
     inkscape:zoom="0.40776491"
     inkscape:cx="1069.6514"
     inkscape:cy="523.60063"
     inkscape:window-x="-8"
     inkscape:window-y="-8"
     inkscape:window-maximized="1"
     inkscape:current-layer="g10" /><g
     id="g10"
     inkscape:groupmode="layer"
     inkscape:label="Presentation1"
     transform="matrix(1.25,0,0,-1.25,0,675)"><g
       id="g4273"
       inkscape:export-xdpi="299.60001"
       inkscape:export-ydpi="299.60001"><g
         id="g4234"><g
           id="g22"
           transform="matrix(0.99990138,0.01404362,-0.01404362,0.99990138,-124.14092,44.328043)"><g
             id="g24"
             clip-path="url(#clipPath26)"><text
               transform="matrix(1,0,0,-1,543.02,392.18)"
               style="font-variant:normal;font-weight:normal;font-size:20.04000092px;font-family:'BPG Arial Caps 2010';-inkscape-font-specification:BPGArialCaps2010;writing-mode:lr-tb;fill:#000000;fill-opacity:1;fill-rule:nonzero;stroke:none"
               id="text30"><tspan
                 x="0 17.294519 28.6572 45.851521 63.045841 74.408524 85.771202 97.173958"
                 y="0"
                 sodipodi:role="line"
                 id="tspan32">თეორიები</tspan></text>
</g></g><path
           d="m 559.56,441.19483 c 26.72619,-14.12506 49.77731,-34.30997 67.31574,-58.92829 l 17.15463,9.23673 -17.34661,-36.74412 -43.10746,4.20539 17.14054,9.22254 c -14.58455,19.54546 -33.34186,35.59601 -54.90277,46.99013 L 559.56,441.19483 Z"
           style="fill:#000000;fill-opacity:1;fill-rule:evenodd;stroke:none"
           id="path34"
           inkscape:connector-curvature="0" /><path
           d="m 559.56,441.19483 c 26.72619,-14.12506 49.77731,-34.30997 67.31574,-58.92829 l 17.15463,9.23673 -17.34661,-36.74412 -43.10746,4.20539 17.14054,9.22254 c -14.58455,19.54546 -33.34186,35.59601 -54.90277,46.99013 L 559.56,441.19483 Z"
           style="fill:none;stroke:#000000;stroke-width:1.55999994;stroke-linecap:butt;stroke-linejoin:miter;stroke-miterlimit:10;stroke-dasharray:none;stroke-opacity:1"
           id="path36"
           inkscape:connector-curvature="0" /><g
           id="g38"
           transform="matrix(0.99989773,-0.0143016,0.0143016,0.99989773,50.032783,137.03487)"><g
             id="g40"
             clip-path="url(#clipPath42)"><text
               transform="matrix(1,0,0,-1,545.42,136.01)"
               style="font-variant:normal;font-weight:normal;font-size:20.04000092px;font-family:'BPG Arial Caps 2010';-inkscape-font-specification:BPGArialCaps2010;writing-mode:lr-tb;fill:#000000;fill-opacity:1;fill-rule:nonzero;stroke:none"
               id="text46"><tspan
                 x="0 11.523 22.885679 34.448761 51.643082 68.937599 80.300278 92.444519"
                 y="0"
                 sodipodi:role="line"
                 id="tspan48">ჰიპოთეზა</tspan></text>
</g></g><path
           d="M 640.37947,179.43212 C 626.26221,152.69818 606.0731,129.63715 581.43708,112.10219 l 9.24028,-17.158156 -36.75826,17.346556 4.22167,43.1054 9.22253,-17.14055 c 19.55251,14.59165 35.6101,33.35606 46.99712,54.92402 l 26.01905,-13.74734 z"
           style="fill:#000000;fill-opacity:1;fill-rule:evenodd;stroke:none"
           id="path50"
           inkscape:connector-curvature="0" /><path
           d="M 640.37947,179.43212 C 626.26221,152.69818 606.0731,129.63715 581.43708,112.10219 l 9.24028,-17.158156 -36.75826,17.346556 4.22167,43.1054 9.22253,-17.14055 c 19.55251,14.59165 35.6101,33.35606 46.99712,54.92402 l 26.01905,-13.74734 z"
           style="fill:none;stroke:#000000;stroke-width:1.55999994;stroke-linecap:butt;stroke-linejoin:miter;stroke-miterlimit:10;stroke-dasharray:none;stroke-opacity:1"
           id="path52"
           inkscape:connector-curvature="0" /><g
           id="g54"
           transform="matrix(0.99998742,0.00501591,-0.00501591,0.99998742,128.91021,-55.197943)"><g
             id="g56"
             clip-path="url(#clipPath58)"><text
               transform="matrix(1,0,0,-1,277.61,135.5)"
               style="font-variant:normal;font-weight:normal;font-size:20.04000092px;font-family:'BPG Arial Caps 2010';-inkscape-font-specification:BPGArialCaps2010;writing-mode:lr-tb;fill:#000000;fill-opacity:1;fill-rule:nonzero;stroke:none"
               id="text62"><tspan
                 x="0 17.294519 28.67724 40.260361 51.94368 63.306358 80.500679 92.083801 103.52664 114.80916"
                 y="0"
                 sodipodi:role="line"
                 id="tspan64">დაკვირვება</tspan></text>
</g></g><path
           d="M 378.60233,98.686136 C 351.87614,112.8112 328.82502,132.99611 311.28659,157.61443 l -17.15463,-9.23673 17.34661,36.74412 43.10746,-4.20539 -17.14054,-9.22254 c 14.58455,-19.54546 33.34186,-35.59601 54.90277,-46.99013 L 378.60233,98.686136 Z"
           style="fill:#000000;fill-opacity:1;fill-rule:evenodd;stroke:none"
           id="path66"
           inkscape:connector-curvature="0" /><path
           d="M 378.60233,98.686136 C 351.87614,112.8112 328.82502,132.99611 311.28659,157.61443 l -17.15463,-9.23673 17.34661,36.74412 43.10746,-4.20539 -17.14054,-9.22254 c 14.58455,-19.54546 33.34186,-35.59601 54.90277,-46.99013 L 378.60233,98.686136 Z"
           style="fill:none;stroke:#000000;stroke-width:1.55999994;stroke-linecap:butt;stroke-linejoin:miter;stroke-miterlimit:10;stroke-dasharray:none;stroke-opacity:1"
           id="path68"
           inkscape:connector-curvature="0" /><g
           id="g4224"
           transform="matrix(0.70828962,-0.70592196,0.70592196,0.70828962,-103.35875,282.66214)"><g
             transform="matrix(0.70440233,0.70980093,-0.70980093,0.70440233,330.26378,-253.1593)"
             id="g70"><g
               clip-path="url(#clipPath74)"
               id="g72"><text
                 id="text78"
                 style="font-variant:normal;font-weight:normal;font-size:20.06399918px;font-family:'BPG Arial Caps 2010';-inkscape-font-specification:BPGArialCaps2010;writing-mode:lr-tb;fill:#000000;fill-opacity:1;fill-rule:nonzero;stroke:none"
                 transform="matrix(1,0,0,-1,280.61,402.55)"><tspan
                   id="tspan80"
                   sodipodi:role="line"
                   y="0"
                   x="0 11.376288 22.953217 34.449886 45.826176 63.041088 74.417374 86.536034 108.8472 120.22349">ემპირიული </tspan></text>
</g></g><g
             transform="matrix(0.70440233,0.70980093,-0.70980093,0.70440233,330.26378,-253.1593)"
             id="g82"><g
               clip-path="url(#clipPath86)"
               id="g84"><text
                 id="text90"
                 style="font-variant:normal;font-weight:normal;font-size:20.04000092px;font-family:'BPG Arial Caps 2010';-inkscape-font-specification:BPGArialCaps2010;writing-mode:lr-tb;fill:#000000;fill-opacity:1;fill-rule:nonzero;stroke:none"
                 transform="matrix(1,0,0,-1,270.41,381.77)"><tspan
                   id="tspan92"
                   sodipodi:role="line"
                   y="0"
                   x="0 12.7254 24.10812 35.6712 47.815441 64.929604 77.654999 89.03772 106.33224 117.69492 129.11772">განზოგადება</tspan></text>
</g></g></g><path
           d="m 297.78428,360.44744 c 14.11797,26.73323 34.30282,49.79849 58.94239,67.32993 l -9.24383,17.16168 36.75826,-17.34656 -4.21954,-43.10751 -9.22253,17.14055 c -19.55251,-14.59165 -35.6101,-33.35606 -46.99712,-54.92402 l -26.01763,13.74593 z"
           style="fill:#000000;fill-opacity:1;fill-rule:evenodd;stroke:none"
           id="path94"
           inkscape:connector-curvature="0" /><path
           d="m 297.78428,360.44744 c 14.11797,26.73323 34.30282,49.79849 58.94239,67.32993 l -9.24383,17.16168 36.75826,-17.34656 -4.21954,-43.10751 -9.22253,17.14055 c -19.55251,-14.59165 -35.6101,-33.35606 -46.99712,-54.92402 l -26.01763,13.74593 z"
           style="fill:none;stroke:#000000;stroke-width:1.55999994;stroke-linecap:butt;stroke-linejoin:miter;stroke-miterlimit:10;stroke-dasharray:none;stroke-opacity:1"
           id="path96"
           inkscape:connector-curvature="0" /></g><text
         transform="scale(1,-1)"
         sodipodi:linespacing="125%"
         id="text4265"
         y="-261.91562"
         x="15.695313"
         style="font-style:normal;font-weight:normal;font-size:32px;line-height:125%;font-family:sans-serif;letter-spacing:0px;word-spacing:0px;fill:#000000;fill-opacity:1;stroke:none;stroke-width:1px;stroke-linecap:butt;stroke-linejoin:miter;stroke-opacity:1"
         xml:space="preserve"><tspan
           style="font-style:normal;font-variant:normal;font-weight:normal;font-stretch:normal;font-family:'BPG Arial Caps 2010';-inkscape-font-specification:'BPG Arial Caps 2010, ';fill:#0000ff"
           y="-261.91562"
           x="15.695313"
           id="tspan4267"
           sodipodi:role="line">ინდუქცია</tspan></text>
<text
         xml:space="preserve"
         style="font-style:normal;font-weight:normal;font-size:32px;line-height:125%;font-family:sans-serif;letter-spacing:0px;word-spacing:0px;fill:#000000;fill-opacity:1;stroke:none;stroke-width:1px;stroke-linecap:butt;stroke-linejoin:miter;stroke-opacity:1"
         x="735.69531"
         y="-261.91562"
         id="text4269"
         sodipodi:linespacing="125%"
         transform="scale(1,-1)"><tspan
           sodipodi:role="line"
           id="tspan4271"
           x="735.69531"
           y="-261.91562"
           style="font-style:normal;font-variant:normal;font-weight:normal;font-stretch:normal;font-family:'BPG Arial Caps 2010';-inkscape-font-specification:'BPG Arial Caps 2010, ';fill:#0000ff">დედუქცია</tspan></text>
</g></g></svg>